<svg width="24" height="24" viewBox="0 0 24 24" fill="none" xmlns="http://www.w3.org/2000/svg">
<g clip-path="url(#clip0_555_23506)">
<path d="M18.7042 18.296C19.3232 18.915 19.3232 19.918 18.7042 20.536C18.0852 21.155 17.0822 21.155 16.4643 20.536C15.8453 19.917 15.8453 18.914 16.4643 18.296C17.0833 17.677 18.0862 17.677 18.7042 18.296Z" stroke="white" stroke-width="1.5" stroke-linecap="round" stroke-linejoin="round"/>
<path d="M7.70387 18.296C8.32287 18.915 8.32287 19.918 7.70387 20.536C7.08487 21.155 6.08188 21.155 5.46388 20.536C4.84588 19.917 4.84488 18.914 5.46388 18.296C6.08288 17.678 7.08487 17.677 7.70387 18.296Z" stroke="white" stroke-width="1.5" stroke-linecap="round" stroke-linejoin="round"/>
<path d="M10 4H14C14.552 4 15 4.448 15 5V15H2" stroke="white" stroke-width="1.5" stroke-linecap="round" stroke-linejoin="round"/>
<path d="M5 19.416H3C2.448 19.416 2 18.968 2 18.416V13" stroke="white" stroke-width="1.5" stroke-linecap="round" stroke-linejoin="round"/>
<path d="M15 7H19.323C19.732 7 20.1 7.249 20.251 7.629L21.857 11.643C21.951 11.879 22 12.131 22 12.385V18.333C22 18.885 21.552 19.333 21 19.333H19.169" stroke="white" stroke-width="1.5" stroke-linecap="round" stroke-linejoin="round"/>
<path d="M15.9999 19.42H8.16992" stroke="white" stroke-width="1.5" stroke-linecap="round" stroke-linejoin="round"/>
<path d="M22 14H18V10H21.2" stroke="white" stroke-width="1.5" stroke-linecap="round" stroke-linejoin="round"/>
<path d="M2 4H7" stroke="white" stroke-width="1.5" stroke-linecap="round" stroke-linejoin="round"/>
<path d="M2 7H5" stroke="white" stroke-width="1.5" stroke-linecap="round" stroke-linejoin="round"/>
<path d="M3 10H2" stroke="white" stroke-width="1.5" stroke-linecap="round" stroke-linejoin="round"/>
</g>
<defs>
<clipPath id="clip0_555_23506">
<rect width="24" height="24" fill="white"/>
</clipPath>
</defs>
</svg>
