<svg width="32" height="32" viewBox="0 0 32 32" fill="none" xmlns="http://www.w3.org/2000/svg">
<g clip-path="url(#clip0_391_14180)">
<path d="M25.9998 9.33366C27.8408 9.33366 29.3332 7.84127 29.3332 6.00033C29.3332 4.15938 27.8408 2.66699 25.9998 2.66699C24.1589 2.66699 22.6665 4.15938 22.6665 6.00033C22.6665 7.84127 24.1589 9.33366 25.9998 9.33366Z" stroke="white" stroke-width="1.5" stroke-linecap="round" stroke-linejoin="round"/>
<path d="M28 13.3333V21.3333C28 23.1014 27.2976 24.7971 26.0474 26.0474C24.7971 27.2976 23.1014 28 21.3333 28H10.6667C8.89856 28 7.20286 27.2976 5.95262 26.0474C4.70238 24.7971 4 23.1014 4 21.3333V10.6667C4 8.89856 4.70238 7.20286 5.95262 5.95262C7.20286 4.70238 8.89856 4 10.6667 4H18.6667" stroke="white" stroke-width="1.5" stroke-linecap="round" stroke-linejoin="round"/>
<path d="M19.9998 21.3336H11.9998C11.6462 21.3336 11.3071 21.1931 11.057 20.9431C10.807 20.693 10.6665 20.3539 10.6665 20.0003V15.2823C10.6665 14.9824 10.734 14.6863 10.8639 14.4159C10.9939 14.1456 11.1829 13.9079 11.4172 13.7206L14.6865 11.1052C15.0411 10.8215 15.4817 10.667 15.9358 10.667C16.39 10.667 16.8306 10.8215 17.1852 11.1052L20.5825 13.823C20.8167 14.0103 21.0058 14.248 21.1358 14.5183C21.2657 14.7887 21.3332 15.0848 21.3332 15.3848V20.0003C21.3332 20.3539 21.1927 20.693 20.9426 20.9431C20.6926 21.1931 20.3535 21.3336 19.9998 21.3336Z" stroke="white" stroke-width="1.5" stroke-linecap="round" stroke-linejoin="round"/>
</g>
<defs>
<clipPath id="clip0_391_14180">
<rect width="32" height="32" fill="white"/>
</clipPath>
</defs>
</svg>
