<svg width="134" height="109" viewBox="0 0 134 109" fill="none" xmlns="http://www.w3.org/2000/svg">
<g clip-path="url(#clip0_392_15846)">
<path d="M26.9271 30.1309C20.8146 36.5668 16.6234 44.4424 15.0677 52.5817C14.2865 56.6526 13.6938 61.4462 15.9973 64.9726C18.1034 68.1924 22.2937 68.9609 26.3313 68.5604C31.126 68.0848 35.8607 66.1691 40.2515 64.2174C45.3952 61.9281 50.3181 59.2055 55.3648 56.7149C57.7807 55.5226 60.2328 54.3035 62.7786 53.4019C64.8252 52.6703 67.053 52.2849 68.9132 53.3072C72.2824 55.1491 72.105 59.8375 71.3636 63.0747C70.3253 67.6394 68.1613 72.0085 65.6977 76.1696C63.2342 80.3306 60.4448 84.212 57.2544 87.9023C51.1513 94.971 42.8477 102.855 32.6763 103.709C30.5497 103.888 28.1909 103.644 26.7011 102.269C25.2112 100.894 24.9667 99.0144 25.296 97.147C26.0336 92.9365 29.2922 89.1805 32.4858 86.0644C36.0158 82.6284 40.1034 79.705 44.3303 77.035C48.5572 74.3651 52.9028 71.9764 57.4014 69.8158C75.6198 61.0709 95.885 56.5355 115.755 56.5991C118.236 56.6084 120.711 56.6872 123.177 56.8236C123.836 56.859 124.608 56.3653 125.014 55.8982C125.31 55.5525 125.581 54.9314 124.909 54.8807C114.729 54.1402 104.299 54.7708 94.0504 56.5462C83.8023 58.3216 73.5016 61.3144 63.7864 65.3985C54.0712 69.4826 44.695 74.5522 36.4388 80.8484C32.3175 83.994 28.5542 87.5699 25.6187 91.6607C23.3132 94.8702 21.2234 99.6926 23.4565 103.049C25.9024 106.732 31.9094 105.893 36.0084 104.759C41.1661 103.324 45.8385 100.443 49.9004 97.1567C57.9675 90.6389 64.5344 82.2153 69.2826 73.5528C71.5799 69.358 73.6415 64.8776 74.268 60.3018C74.7339 56.9221 74.1276 52.5082 70.3712 51.1199C68.2452 50.3374 65.7756 50.8183 63.5892 51.5675C60.994 52.4602 58.4833 53.6873 56.0223 54.8826C50.8086 57.421 45.7428 60.2571 40.4496 62.6419C36.0473 64.625 31.0996 66.6731 26.2456 66.7779C24.2463 66.822 22.2641 66.5147 20.6215 65.5614C18.6185 64.402 17.5448 62.38 17.1317 60.2507C16.3183 56.0482 17.2975 51.3225 18.6247 47.1254C19.9519 42.9284 21.9269 39.0078 24.5185 35.3209C25.7812 33.5235 27.2096 31.8208 28.7451 30.2007C29.0659 29.8594 29.2243 29.3274 28.6466 29.2418C28.069 29.1562 27.2935 29.7255 26.9205 30.113L26.9271 30.1309Z" fill="#4153E4"/>
<path d="M106.593 62.2129C113.246 60.5131 119.905 58.8109 126.454 56.6821C126.99 56.5058 129.054 54.9419 127.658 54.744C123.947 54.2122 120.278 53.5228 116.669 52.6624C113.061 51.8019 109.615 50.6311 106.05 49.6802C105.231 49.46 102.885 51.0937 103.896 51.521C107.278 52.9384 111.042 53.8435 114.679 54.6999C118.317 55.5564 122.067 56.2567 125.834 56.7949L127.038 54.8568C120.703 56.9203 114.262 58.5896 107.822 60.2386C107.127 60.4195 106.351 60.8197 106.002 61.4418C105.737 61.9118 105.928 62.3899 106.589 62.2214L106.593 62.2129Z" fill="#4153E4"/>
</g>
<defs>
<clipPath id="clip0_392_15846">
<rect width="114.967" height="73.6259" fill="white" transform="translate(0 39.6504) rotate(-20.1748)"/>
</clipPath>
</defs>
</svg>
