<svg width="140" height="50" viewBox="0 0 140 50" fill="none" xmlns="http://www.w3.org/2000/svg">
<path fill-rule="evenodd" clip-rule="evenodd" d="M27.8073 40.0696H34.9379L28.1081 28.2546C29.9844 27.7494 31.592 26.7996 32.6965 25.6274C33.9948 24.2495 34.751 22.5253 34.9424 20.7274C35.2062 18.2501 34.3991 15.6312 32.4633 13.5799C31.2017 12.2432 29.729 11.5711 28.1447 11.2415C26.9699 10.997 25.7333 10.9405 24.4762 10.9405H17.6052L21.2229 16.9206L24.5195 16.9319C25.5524 16.9352 26.5162 16.9801 27.067 17.2358C27.6534 17.5079 28.1785 18.075 28.4545 18.7685C28.7487 19.5084 28.7599 20.3926 28.2597 21.2176C27.5313 22.419 26.5481 22.6022 25.2735 22.6128L17.6543 22.6071L27.8073 40.0696Z" fill="#386EFD"/>
<path fill-rule="evenodd" clip-rule="evenodd" d="M24.8434 2.36735C37.2596 2.36735 47.325 12.456 47.325 24.901C47.325 37.3461 37.2596 47.4347 24.8434 47.4347C12.4272 47.4347 2.36187 37.3461 2.36187 24.901C2.36187 12.456 12.4272 2.36735 24.8434 2.36735ZM24.8434 0C38.5641 0 49.6868 11.1486 49.6868 24.901C49.6868 38.6535 38.5641 49.8021 24.8434 49.8021C11.1228 49.8021 0 38.6535 0 24.901C0 11.1486 11.1228 0 24.8434 0Z" fill="#386EFD"/>
<path d="M55.3521 40.0491V13.5704C57.0478 13.5704 58.4225 14.9474 58.4225 16.646V37.2961H67.3959C68.9137 37.2961 70.1441 38.5287 70.1441 40.0491H55.3521Z" fill="white"/>
<path d="M55.3521 40.0491V13.5704C57.0478 13.5704 58.4225 14.9474 58.4225 16.646V37.2961H67.3959C68.9137 37.2961 70.1441 38.5287 70.1441 40.0491H55.3521Z" fill="#323232"/>
<path d="M91.2395 40.0491L87.9885 31.6454H81.3054C79.885 31.6454 78.8667 30.2731 79.2762 28.9106L77.4047 31.6454L75.2888 37.1454C74.6157 38.895 72.937 40.0491 71.0652 40.0491L80.8956 14.7499C81.1974 13.9732 81.9441 13.4617 82.7761 13.4617C83.6098 13.4617 84.3577 13.9753 84.6583 14.7543L93.2722 37.079C93.8242 38.5094 92.7704 40.0491 91.2395 40.0491ZM81.3834 28.9106C84.1386 28.9106 86.0497 26.1596 85.0925 23.5717L83.9789 20.5613C83.9067 20.344 83.7862 19.9878 83.6177 19.4928C83.4612 18.9977 83.2986 18.4846 83.13 17.9533C82.9615 17.4221 82.823 16.9934 82.7146 16.6674C82.5942 17.1625 82.4618 17.6575 82.3173 18.1525C82.1848 18.6355 82.0524 19.0883 81.9199 19.5109C81.7875 19.9214 81.6731 20.2716 81.5768 20.5613L77.4047 31.6454L79.2762 28.9106H81.3834Z" fill="white"/>
<path d="M91.2395 40.0491L87.9885 31.6454H81.3054C79.885 31.6454 78.8667 30.2731 79.2762 28.9106L77.4047 31.6454L75.2888 37.1454C74.6157 38.895 72.937 40.0491 71.0652 40.0491L80.8956 14.7499C81.1974 13.9732 81.9441 13.4617 82.7761 13.4617C83.6098 13.4617 84.3577 13.9753 84.6583 14.7543L93.2722 37.079C93.8242 38.5094 92.7704 40.0491 91.2395 40.0491ZM81.3834 28.9106C84.1386 28.9106 86.0497 26.1596 85.0925 23.5717L83.9789 20.5613C83.9067 20.344 83.7862 19.9878 83.6177 19.4928C83.4612 18.9977 83.2986 18.4846 83.13 17.9533C82.9615 17.4221 82.823 16.9934 82.7146 16.6674C82.5942 17.1625 82.4618 17.6575 82.3173 18.1525C82.1848 18.6355 82.0524 19.0883 81.9199 19.5109C81.7875 19.9214 81.6731 20.2716 81.5768 20.5613L77.4047 31.6454L79.2762 28.9106H81.3834Z" fill="#323232"/>
<path d="M116.357 37.7516C116.357 39.0205 115.33 40.0491 114.063 40.0491C113.286 40.0491 112.562 39.6547 112.139 39.0014L98.4221 17.8084H98.2777C98.3138 18.4001 98.3559 19.0762 98.4041 19.8369C98.4523 20.5855 98.4884 21.3884 98.5125 22.2457C98.5486 23.0909 98.5666 23.9542 98.5666 24.8356V37.1905C98.5666 38.7693 97.289 40.0491 95.713 40.0491V15.8559C95.713 14.5937 96.7345 13.5704 97.9946 13.5704C98.768 13.5704 99.4888 13.9629 99.9094 14.613L113.575 35.7386H113.702C113.678 35.316 113.648 34.7183 113.612 33.9456C113.575 33.1607 113.539 32.3216 113.503 31.4281C113.479 30.5225 113.467 29.6834 113.467 28.9106V16.4651C113.467 14.8664 114.761 13.5704 116.357 13.5704V37.7516Z" fill="white"/>
<path d="M116.357 37.7516C116.357 39.0205 115.33 40.0491 114.063 40.0491C113.286 40.0491 112.562 39.6547 112.139 39.0014L98.4221 17.8084H98.2777C98.3138 18.4001 98.3559 19.0762 98.4041 19.8369C98.4523 20.5855 98.4884 21.3884 98.5125 22.2457C98.5486 23.0909 98.5666 23.9542 98.5666 24.8356V37.1905C98.5666 38.7693 97.289 40.0491 95.713 40.0491V15.8559C95.713 14.5937 96.7345 13.5704 97.9946 13.5704C98.768 13.5704 99.4888 13.9629 99.9094 14.613L113.575 35.7386H113.702C113.678 35.316 113.648 34.7183 113.612 33.9456C113.575 33.1607 113.539 32.3216 113.503 31.4281C113.479 30.5225 113.467 29.6834 113.467 28.9106V16.4651C113.467 14.8664 114.761 13.5704 116.357 13.5704V37.7516Z" fill="#323232"/>
<path d="M140 26.5562C140 29.5385 139.458 32.0318 138.375 34.0361C137.291 36.0284 135.72 37.5316 133.661 38.5458C131.614 39.548 129.127 40.0491 126.201 40.0491H122.987C120.802 40.0491 119.031 38.2751 119.031 36.0868V18.2061L122.101 16.1965H119.031C119.031 14.7462 120.205 13.5704 121.653 13.5704H126.996C129.681 13.5704 131.993 14.0654 133.931 15.0555C135.87 16.0335 137.363 17.4885 138.411 19.4203C139.47 21.3401 140 23.7187 140 26.5562ZM136.767 26.6648C136.767 24.2862 136.37 22.3242 135.575 20.7787C134.792 19.2332 133.636 18.0861 132.107 17.3375C130.59 16.5769 128.73 16.1965 126.526 16.1965H122.101L119.031 18.2061C120.727 18.2061 122.101 19.5831 122.101 21.2817V35.8199C122.101 36.6952 122.81 37.4048 123.684 37.4048H125.84C129.476 37.4048 132.204 36.5053 134.022 34.7062C135.852 32.9072 136.767 30.2267 136.767 26.6648Z" fill="white"/>
<path d="M140 26.5562C140 29.5385 139.458 32.0318 138.375 34.0361C137.291 36.0284 135.72 37.5316 133.661 38.5458C131.614 39.548 129.127 40.0491 126.201 40.0491H122.987C120.802 40.0491 119.031 38.2751 119.031 36.0868V18.2061L122.101 16.1965H119.031C119.031 14.7462 120.205 13.5704 121.653 13.5704H126.996C129.681 13.5704 131.993 14.0654 133.931 15.0555C135.87 16.0335 137.363 17.4885 138.411 19.4203C139.47 21.3401 140 23.7187 140 26.5562ZM136.767 26.6648C136.767 24.2862 136.37 22.3242 135.575 20.7787C134.792 19.2332 133.636 18.0861 132.107 17.3375C130.59 16.5769 128.73 16.1965 126.526 16.1965H122.101L119.031 18.2061C120.727 18.2061 122.101 19.5831 122.101 21.2817V35.8199C122.101 36.6952 122.81 37.4048 123.684 37.4048H125.84C129.476 37.4048 132.204 36.5053 134.022 34.7062C135.852 32.9072 136.767 30.2267 136.767 26.6648Z" fill="#323232"/>
<path d="M58.0635 47.2422H59.8534V49.7298C59.5849 49.8211 59.3081 49.8889 59.0233 49.9333C58.7407 49.9778 58.4243 50 58.074 50C57.5416 50 57.0921 49.8936 56.7255 49.6807C56.3612 49.4678 56.0845 49.1649 55.8953 48.772C55.7062 48.3767 55.6116 47.9077 55.6116 47.365C55.6116 46.834 55.7155 46.3709 55.9234 45.9756C56.1335 45.5802 56.4359 45.2738 56.8306 45.0563C57.2275 44.8364 57.7039 44.7265 58.2597 44.7265C58.5445 44.7265 58.8143 44.7534 59.0688 44.8072C59.3257 44.8586 59.5638 44.9323 59.7833 45.0282L59.5557 45.5475C59.3665 45.4656 59.1575 45.3955 58.9287 45.337C58.7022 45.2785 58.4675 45.2493 58.2246 45.2493C57.8066 45.2493 57.4482 45.3358 57.1493 45.5089C56.8527 45.682 56.6251 45.9264 56.4663 46.2422C56.3098 46.558 56.2316 46.9322 56.2316 47.365C56.2316 47.793 56.3005 48.1661 56.4383 48.4842C56.576 48.8 56.7909 49.0456 57.0828 49.2211C57.3746 49.3965 57.7506 49.4842 58.2106 49.4842C58.4418 49.4842 58.6403 49.4714 58.8061 49.4456C58.9719 49.4176 59.1225 49.3848 59.2579 49.3474V47.7755H58.0635V47.2422Z" fill="white"/>
<path d="M58.0635 47.2422H59.8534V49.7298C59.5849 49.8211 59.3081 49.8889 59.0233 49.9333C58.7407 49.9778 58.4243 50 58.074 50C57.5416 50 57.0921 49.8936 56.7255 49.6807C56.3612 49.4678 56.0845 49.1649 55.8953 48.772C55.7062 48.3767 55.6116 47.9077 55.6116 47.365C55.6116 46.834 55.7155 46.3709 55.9234 45.9756C56.1335 45.5802 56.4359 45.2738 56.8306 45.0563C57.2275 44.8364 57.7039 44.7265 58.2597 44.7265C58.5445 44.7265 58.8143 44.7534 59.0688 44.8072C59.3257 44.8586 59.5638 44.9323 59.7833 45.0282L59.5557 45.5475C59.3665 45.4656 59.1575 45.3955 58.9287 45.337C58.7022 45.2785 58.4675 45.2493 58.2246 45.2493C57.8066 45.2493 57.4482 45.3358 57.1493 45.5089C56.8527 45.682 56.6251 45.9264 56.4663 46.2422C56.3098 46.558 56.2316 46.9322 56.2316 47.365C56.2316 47.793 56.3005 48.1661 56.4383 48.4842C56.576 48.8 56.7909 49.0456 57.0828 49.2211C57.3746 49.3965 57.7506 49.4842 58.2106 49.4842C58.4418 49.4842 58.6403 49.4714 58.8061 49.4456C58.9719 49.4176 59.1225 49.3848 59.2579 49.3474V47.7755H58.0635V47.2422Z" fill="#323232"/>
<path d="M64.4138 44.8001C64.8341 44.8001 65.1809 44.8528 65.4541 44.958C65.7296 45.061 65.9351 45.2189 66.0706 45.4317C66.206 45.6446 66.2737 45.9159 66.2737 46.2457C66.2737 46.5171 66.2247 46.7439 66.1266 46.9264C66.0285 47.1065 65.9001 47.2527 65.7413 47.365C65.5825 47.4773 65.4132 47.5638 65.2334 47.6246L66.638 49.9298H65.9445L64.6905 47.7895H63.6257V49.9298H63.0302V44.8001H64.4138ZM64.3788 45.3159H63.6257V47.2843H64.4383C64.8563 47.2843 65.1634 47.1989 65.3595 47.0282C65.558 46.8574 65.6572 46.6059 65.6572 46.2738C65.6572 45.9253 65.5522 45.6785 65.342 45.5335C65.1342 45.3884 64.8131 45.3159 64.3788 45.3159Z" fill="white"/>
<path d="M64.4138 44.8001C64.8341 44.8001 65.1809 44.8528 65.4541 44.958C65.7296 45.061 65.9351 45.2189 66.0706 45.4317C66.206 45.6446 66.2737 45.9159 66.2737 46.2457C66.2737 46.5171 66.2247 46.7439 66.1266 46.9264C66.0285 47.1065 65.9001 47.2527 65.7413 47.365C65.5825 47.4773 65.4132 47.5638 65.2334 47.6246L66.638 49.9298H65.9445L64.6905 47.7895H63.6257V49.9298H63.0302V44.8001H64.4138ZM64.3788 45.3159H63.6257V47.2843H64.4383C64.8563 47.2843 65.1634 47.1989 65.3595 47.0282C65.558 46.8574 65.6572 46.6059 65.6572 46.2738C65.6572 45.9253 65.5522 45.6785 65.342 45.5335C65.1342 45.3884 64.8131 45.3159 64.3788 45.3159Z" fill="#323232"/>
<path d="M73.8359 47.358C73.8359 47.7533 73.7857 48.1135 73.6853 48.4386C73.5849 48.7614 73.4355 49.0398 73.237 49.2737C73.0408 49.5053 72.7968 49.6842 72.5049 49.8105C72.213 49.9368 71.8744 50 71.4891 50C71.0922 50 70.7454 49.9368 70.4488 49.8105C70.1546 49.6842 69.9094 49.5041 69.7133 49.2702C69.5194 49.0363 69.3735 48.7568 69.2754 48.4316C69.1797 48.1065 69.1318 47.7463 69.1318 47.351C69.1318 46.827 69.2182 46.3674 69.391 45.972C69.5638 45.5767 69.8253 45.2691 70.1756 45.0493C70.5282 44.8294 70.9696 44.7194 71.4996 44.7194C72.0064 44.7194 72.4325 44.8282 72.7781 45.0457C73.1261 45.2633 73.3888 45.5697 73.5662 45.965C73.746 46.358 73.8359 46.8223 73.8359 47.358ZM69.7588 47.358C69.7588 47.793 69.8207 48.1696 69.9444 48.4878C70.0682 48.8059 70.2573 49.0515 70.5119 49.2246C70.7687 49.3977 71.0945 49.4842 71.4891 49.4842C71.8861 49.4842 72.2107 49.3977 72.4629 49.2246C72.7174 49.0515 72.9054 48.8059 73.0268 48.4878C73.1482 48.1696 73.209 47.793 73.209 47.358C73.209 46.696 73.07 46.1791 72.7921 45.8071C72.5166 45.4329 72.0858 45.2457 71.4996 45.2457C71.1027 45.2457 70.7757 45.3311 70.5189 45.5019C70.262 45.6726 70.0705 45.9159 69.9444 46.2317C69.8207 46.5451 69.7588 46.9206 69.7588 47.358Z" fill="white"/>
<path d="M73.8359 47.358C73.8359 47.7533 73.7857 48.1135 73.6853 48.4386C73.5849 48.7614 73.4355 49.0398 73.237 49.2737C73.0408 49.5053 72.7968 49.6842 72.5049 49.8105C72.213 49.9368 71.8744 50 71.4891 50C71.0922 50 70.7454 49.9368 70.4488 49.8105C70.1546 49.6842 69.9094 49.5041 69.7133 49.2702C69.5194 49.0363 69.3735 48.7568 69.2754 48.4316C69.1797 48.1065 69.1318 47.7463 69.1318 47.351C69.1318 46.827 69.2182 46.3674 69.391 45.972C69.5638 45.5767 69.8253 45.2691 70.1756 45.0493C70.5282 44.8294 70.9696 44.7194 71.4996 44.7194C72.0064 44.7194 72.4325 44.8282 72.7781 45.0457C73.1261 45.2633 73.3888 45.5697 73.5662 45.965C73.746 46.358 73.8359 46.8223 73.8359 47.358ZM69.7588 47.358C69.7588 47.793 69.8207 48.1696 69.9444 48.4878C70.0682 48.8059 70.2573 49.0515 70.5119 49.2246C70.7687 49.3977 71.0945 49.4842 71.4891 49.4842C71.8861 49.4842 72.2107 49.3977 72.4629 49.2246C72.7174 49.0515 72.9054 48.8059 73.0268 48.4878C73.1482 48.1696 73.209 47.793 73.209 47.358C73.209 46.696 73.07 46.1791 72.7921 45.8071C72.5166 45.4329 72.0858 45.2457 71.4996 45.2457C71.1027 45.2457 70.7757 45.3311 70.5189 45.5019C70.262 45.6726 70.0705 45.9159 69.9444 46.2317C69.8207 46.5451 69.7588 46.9206 69.7588 47.358Z" fill="#323232"/>
<path d="M80.7887 44.8001V48.1194C80.7887 48.4819 80.7151 48.8047 80.568 49.0877C80.4232 49.3708 80.2037 49.5942 79.9095 49.7579C79.6153 49.9193 79.2463 50 78.8027 50C78.1698 50 77.6876 49.8281 77.356 49.4842C77.0268 49.1404 76.8622 48.6807 76.8622 48.1053V44.8001H77.4611V48.1229C77.4611 48.5579 77.5755 48.8936 77.8044 49.1298C78.0356 49.3661 78.38 49.4842 78.8377 49.4842C79.1506 49.4842 79.4063 49.4281 79.6048 49.3158C79.8056 49.2012 79.9539 49.0421 80.0496 48.8386C80.1477 48.6328 80.1967 48.3954 80.1967 48.1264V44.8001H80.7887Z" fill="white"/>
<path d="M80.7887 44.8001V48.1194C80.7887 48.4819 80.7151 48.8047 80.568 49.0877C80.4232 49.3708 80.2037 49.5942 79.9095 49.7579C79.6153 49.9193 79.2463 50 78.8027 50C78.1698 50 77.6876 49.8281 77.356 49.4842C77.0268 49.1404 76.8622 48.6807 76.8622 48.1053V44.8001H77.4611V48.1229C77.4611 48.5579 77.5755 48.8936 77.8044 49.1298C78.0356 49.3661 78.38 49.4842 78.8377 49.4842C79.1506 49.4842 79.4063 49.4281 79.6048 49.3158C79.8056 49.2012 79.9539 49.0421 80.0496 48.8386C80.1477 48.6328 80.1967 48.3954 80.1967 48.1264V44.8001H80.7887Z" fill="#323232"/>
<path d="M85.4226 44.8001C86.0835 44.8001 86.5657 44.93 86.8693 45.1896C87.1752 45.4469 87.3281 45.8165 87.3281 46.2984C87.3281 46.5159 87.2919 46.7229 87.2195 46.9194C87.1495 47.1135 87.0351 47.2855 86.8763 47.4352C86.7175 47.5825 86.5085 47.6995 86.2493 47.786C85.9924 47.8702 85.6772 47.9123 85.3036 47.9123H84.6801V49.9298H84.0846V44.8001H85.4226ZM85.3666 45.3089H84.6801V47.4001H85.237C85.5639 47.4001 85.836 47.365 86.0531 47.2948C86.2726 47.2246 86.4373 47.1112 86.547 46.9545C86.6568 46.7954 86.7116 46.5849 86.7116 46.3229C86.7116 45.9814 86.6031 45.7276 86.3859 45.5615C86.1687 45.3931 85.8289 45.3089 85.3666 45.3089Z" fill="white"/>
<path d="M85.4226 44.8001C86.0835 44.8001 86.5657 44.93 86.8693 45.1896C87.1752 45.4469 87.3281 45.8165 87.3281 46.2984C87.3281 46.5159 87.2919 46.7229 87.2195 46.9194C87.1495 47.1135 87.0351 47.2855 86.8763 47.4352C86.7175 47.5825 86.5085 47.6995 86.2493 47.786C85.9924 47.8702 85.6772 47.9123 85.3036 47.9123H84.6801V49.9298H84.0846V44.8001H85.4226ZM85.3666 45.3089H84.6801V47.4001H85.237C85.5639 47.4001 85.836 47.365 86.0531 47.2948C86.2726 47.2246 86.4373 47.1112 86.547 46.9545C86.6568 46.7954 86.7116 46.5849 86.7116 46.3229C86.7116 45.9814 86.6031 45.7276 86.3859 45.5615C86.1687 45.3931 85.8289 45.3089 85.3666 45.3089Z" fill="#323232"/>
<path d="M96.3263 45.2528C96.0438 45.2528 95.7892 45.3019 95.5627 45.4001C95.3385 45.496 95.1471 45.6364 94.9883 45.8212C94.8318 46.0036 94.7115 46.2247 94.6275 46.4843C94.5434 46.7439 94.5014 47.0363 94.5014 47.3615C94.5014 47.7919 94.5679 48.1661 94.701 48.4842C94.8365 48.8 95.0373 49.0445 95.3035 49.2176C95.5721 49.3907 95.9072 49.4772 96.3088 49.4772C96.5376 49.4772 96.7525 49.4585 96.9533 49.4211C97.1564 49.3813 97.3538 49.3322 97.5452 49.2737V49.793C97.3584 49.8632 97.1623 49.9146 96.9568 49.9474C96.7513 49.9825 96.5073 50 96.2247 50C95.704 50 95.2685 49.8924 94.9182 49.6772C94.5703 49.4597 94.3087 49.1532 94.1336 48.7579C93.9608 48.3626 93.8744 47.896 93.8744 47.358C93.8744 46.9697 93.9281 46.6153 94.0355 46.2948C94.1453 45.972 94.3041 45.6937 94.5119 45.4598C94.7221 45.2259 94.9789 45.0457 95.2825 44.9194C95.5884 44.7908 95.9387 44.7265 96.3333 44.7265C96.5925 44.7265 96.8424 44.7522 97.0829 44.8037C97.3234 44.8551 97.5406 44.9288 97.7344 45.0247L97.4962 45.53C97.3327 45.4551 97.1529 45.3908 96.9568 45.337C96.763 45.2808 96.5528 45.2528 96.3263 45.2528Z" fill="white"/>
<path d="M96.3263 45.2528C96.0438 45.2528 95.7892 45.3019 95.5627 45.4001C95.3385 45.496 95.1471 45.6364 94.9883 45.8212C94.8318 46.0036 94.7115 46.2247 94.6275 46.4843C94.5434 46.7439 94.5014 47.0363 94.5014 47.3615C94.5014 47.7919 94.5679 48.1661 94.701 48.4842C94.8365 48.8 95.0373 49.0445 95.3035 49.2176C95.5721 49.3907 95.9072 49.4772 96.3088 49.4772C96.5376 49.4772 96.7525 49.4585 96.9533 49.4211C97.1564 49.3813 97.3538 49.3322 97.5452 49.2737V49.793C97.3584 49.8632 97.1623 49.9146 96.9568 49.9474C96.7513 49.9825 96.5073 50 96.2247 50C95.704 50 95.2685 49.8924 94.9182 49.6772C94.5703 49.4597 94.3087 49.1532 94.1336 48.7579C93.9608 48.3626 93.8744 47.896 93.8744 47.358C93.8744 46.9697 93.9281 46.6153 94.0355 46.2948C94.1453 45.972 94.3041 45.6937 94.5119 45.4598C94.7221 45.2259 94.9789 45.0457 95.2825 44.9194C95.5884 44.7908 95.9387 44.7265 96.3333 44.7265C96.5925 44.7265 96.8424 44.7522 97.0829 44.8037C97.3234 44.8551 97.5406 44.9288 97.7344 45.0247L97.4962 45.53C97.3327 45.4551 97.1529 45.3908 96.9568 45.337C96.763 45.2808 96.5528 45.2528 96.3263 45.2528Z" fill="#323232"/>
<path d="M105.034 47.358C105.034 47.7533 104.984 48.1135 104.883 48.4386C104.783 48.7614 104.633 49.0398 104.435 49.2737C104.239 49.5053 103.995 49.6842 103.703 49.8105C103.411 49.9368 103.072 50 102.687 50C102.29 50 101.943 49.9368 101.647 49.8105C101.353 49.6842 101.107 49.5041 100.911 49.2702C100.717 49.0363 100.571 48.7568 100.473 48.4316C100.378 48.1065 100.33 47.7463 100.33 47.351C100.33 46.827 100.416 46.3674 100.589 45.972C100.762 45.5767 101.023 45.2691 101.374 45.0493C101.726 44.8294 102.168 44.7194 102.698 44.7194C103.204 44.7194 103.63 44.8282 103.976 45.0457C104.324 45.2633 104.587 45.5697 104.764 45.965C104.944 46.358 105.034 46.8223 105.034 47.358ZM100.957 47.358C100.957 47.793 101.019 48.1696 101.142 48.4878C101.266 48.8059 101.455 49.0515 101.71 49.2246C101.967 49.3977 102.292 49.4842 102.687 49.4842C103.084 49.4842 103.409 49.3977 103.661 49.2246C103.915 49.0515 104.103 48.8059 104.225 48.4878C104.346 48.1696 104.407 47.793 104.407 47.358C104.407 46.696 104.268 46.1791 103.99 45.8071C103.715 45.4329 103.284 45.2457 102.698 45.2457C102.301 45.2457 101.974 45.3311 101.717 45.5019C101.46 45.6726 101.268 45.9159 101.142 46.2317C101.019 46.5451 100.957 46.9206 100.957 47.358Z" fill="white"/>
<path d="M105.034 47.358C105.034 47.7533 104.984 48.1135 104.883 48.4386C104.783 48.7614 104.633 49.0398 104.435 49.2737C104.239 49.5053 103.995 49.6842 103.703 49.8105C103.411 49.9368 103.072 50 102.687 50C102.29 50 101.943 49.9368 101.647 49.8105C101.353 49.6842 101.107 49.5041 100.911 49.2702C100.717 49.0363 100.571 48.7568 100.473 48.4316C100.378 48.1065 100.33 47.7463 100.33 47.351C100.33 46.827 100.416 46.3674 100.589 45.972C100.762 45.5767 101.023 45.2691 101.374 45.0493C101.726 44.8294 102.168 44.7194 102.698 44.7194C103.204 44.7194 103.63 44.8282 103.976 45.0457C104.324 45.2633 104.587 45.5697 104.764 45.965C104.944 46.358 105.034 46.8223 105.034 47.358ZM100.957 47.358C100.957 47.793 101.019 48.1696 101.142 48.4878C101.266 48.8059 101.455 49.0515 101.71 49.2246C101.967 49.3977 102.292 49.4842 102.687 49.4842C103.084 49.4842 103.409 49.3977 103.661 49.2246C103.915 49.0515 104.103 48.8059 104.225 48.4878C104.346 48.1696 104.407 47.793 104.407 47.358C104.407 46.696 104.268 46.1791 103.99 45.8071C103.715 45.4329 103.284 45.2457 102.698 45.2457C102.301 45.2457 101.974 45.3311 101.717 45.5019C101.46 45.6726 101.268 45.9159 101.142 46.2317C101.019 46.5451 100.957 46.9206 100.957 47.358Z" fill="#323232"/>
<path d="M110.365 49.9298L108.645 45.3896H108.617C108.626 45.4855 108.635 45.6025 108.642 45.7405C108.649 45.8785 108.654 46.0294 108.659 46.1931C108.664 46.3545 108.666 46.5194 108.666 46.6878V49.9298H108.113V44.8001H108.995L110.617 49.0667H110.642L112.288 44.8001H113.164V49.9298H112.575V46.6457C112.575 46.4937 112.577 46.3416 112.582 46.1896C112.587 46.0352 112.593 45.8902 112.6 45.7545C112.607 45.6165 112.614 45.4972 112.621 45.3966H112.593L110.852 49.9298H110.365Z" fill="white"/>
<path d="M110.365 49.9298L108.645 45.3896H108.617C108.626 45.4855 108.635 45.6025 108.642 45.7405C108.649 45.8785 108.654 46.0294 108.659 46.1931C108.664 46.3545 108.666 46.5194 108.666 46.6878V49.9298H108.113V44.8001H108.995L110.617 49.0667H110.642L112.288 44.8001H113.164V49.9298H112.575V46.6457C112.575 46.4937 112.577 46.3416 112.582 46.1896C112.587 46.0352 112.593 45.8902 112.6 45.7545C112.607 45.6165 112.614 45.4972 112.621 45.3966H112.593L110.852 49.9298H110.365Z" fill="#323232"/>
<path d="M117.84 44.8001C118.5 44.8001 118.983 44.93 119.286 45.1896C119.592 45.4469 119.745 45.8165 119.745 46.2984C119.745 46.5159 119.709 46.7229 119.636 46.9194C119.566 47.1135 119.452 47.2855 119.293 47.4352C119.134 47.5825 118.925 47.6995 118.666 47.786C118.409 47.8702 118.094 47.9123 117.72 47.9123H117.097V49.9298H116.502V44.8001H117.84ZM117.784 45.3089H117.097V47.4001H117.654C117.981 47.4001 118.253 47.365 118.47 47.2948C118.69 47.2246 118.854 47.1112 118.964 46.9545C119.074 46.7954 119.129 46.5849 119.129 46.3229C119.129 45.9814 119.02 45.7276 118.803 45.5615C118.586 45.3931 118.246 45.3089 117.784 45.3089Z" fill="white"/>
<path d="M117.84 44.8001C118.5 44.8001 118.983 44.93 119.286 45.1896C119.592 45.4469 119.745 45.8165 119.745 46.2984C119.745 46.5159 119.709 46.7229 119.636 46.9194C119.566 47.1135 119.452 47.2855 119.293 47.4352C119.134 47.5825 118.925 47.6995 118.666 47.786C118.409 47.8702 118.094 47.9123 117.72 47.9123H117.097V49.9298H116.502V44.8001H117.84ZM117.784 45.3089H117.097V47.4001H117.654C117.981 47.4001 118.253 47.365 118.47 47.2948C118.69 47.2246 118.854 47.1112 118.964 46.9545C119.074 46.7954 119.129 46.5849 119.129 46.3229C119.129 45.9814 119.02 45.7276 118.803 45.5615C118.586 45.3931 118.246 45.3089 117.784 45.3089Z" fill="#323232"/>
<path d="M125.966 49.9298L125.335 48.3018H123.283L122.656 49.9298H122.053L124.057 44.7791H124.593L126.582 49.9298H125.966ZM125.157 47.772L124.558 46.1545C124.544 46.1124 124.52 46.0434 124.488 45.9475C124.457 45.8516 124.426 45.7522 124.393 45.6492C124.36 45.5463 124.333 45.4633 124.312 45.4001C124.289 45.496 124.263 45.5919 124.235 45.6878C124.21 45.7814 124.184 45.8691 124.158 45.951C124.133 46.0305 124.11 46.0984 124.092 46.1545L123.482 47.772H125.157Z" fill="white"/>
<path d="M125.966 49.9298L125.335 48.3018H123.283L122.656 49.9298H122.053L124.057 44.7791H124.593L126.582 49.9298H125.966ZM125.157 47.772L124.558 46.1545C124.544 46.1124 124.52 46.0434 124.488 45.9475C124.457 45.8516 124.426 45.7522 124.393 45.6492C124.36 45.5463 124.333 45.4633 124.312 45.4001C124.289 45.496 124.263 45.5919 124.235 45.6878C124.21 45.7814 124.184 45.8691 124.158 45.951C124.133 46.0305 124.11 46.0984 124.092 46.1545L123.482 47.772H125.157Z" fill="#323232"/>
<path d="M133.234 49.9298H132.547L129.755 45.6212H129.727C129.734 45.7358 129.743 45.8668 129.752 46.0141C129.761 46.1592 129.768 46.3147 129.773 46.4808C129.78 46.6445 129.784 46.8118 129.784 46.9825V49.9298H129.23V44.8001H129.913L132.694 49.0948H132.719C132.714 49.0129 132.708 48.8971 132.701 48.7474C132.694 48.5954 132.687 48.4328 132.68 48.2597C132.676 48.0843 132.673 47.9217 132.673 47.772V44.8001H133.234V49.9298Z" fill="white"/>
<path d="M133.234 49.9298H132.547L129.755 45.6212H129.727C129.734 45.7358 129.743 45.8668 129.752 46.0141C129.761 46.1592 129.768 46.3147 129.773 46.4808C129.78 46.6445 129.784 46.8118 129.784 46.9825V49.9298H129.23V44.8001H129.913L132.694 49.0948H132.719C132.714 49.0129 132.708 48.8971 132.701 48.7474C132.694 48.5954 132.687 48.4328 132.68 48.2597C132.676 48.0843 132.673 47.9217 132.673 47.772V44.8001H133.234V49.9298Z" fill="#323232"/>
<path d="M137.875 47.372L139.237 44.8001H139.878L138.172 47.9404V49.9298H137.577V47.9685L135.868 44.8001H136.519L137.875 47.372Z" fill="white"/>
<path d="M137.875 47.372L139.237 44.8001H139.878L138.172 47.9404V49.9298H137.577V47.9685L135.868 44.8001H136.519L137.875 47.372Z" fill="#323232"/>
<path d="M10.5057 10.9405L14.0877 16.9312H16.5578L12.9759 10.9405H10.5057Z" fill="white"/>
<path d="M13.808 10.9405L17.3899 16.9312H19.8601L16.2781 10.9405H13.808Z" fill="white"/>
<path d="M32.7432 34.0788L36.3251 40.0696H38.7953L35.2133 34.0788H32.7432Z" fill="white"/>
</svg>
