<svg width="32" height="32" viewBox="0 0 32 32" fill="none" xmlns="http://www.w3.org/2000/svg">
<g clip-path="url(#clip0_391_14920)">
<path d="M16.0002 23.1108L11.7376 26.5207C11.6407 26.5983 11.5238 26.6469 11.4005 26.6609C11.2771 26.6749 11.1523 26.6539 11.0404 26.6001C10.9285 26.5463 10.8341 26.462 10.768 26.3569C10.7019 26.2518 10.6668 26.1302 10.6668 26.006V23.1108H8.88906C7.94606 23.1108 7.04169 22.7362 6.3749 22.0694C5.7081 21.4026 5.3335 20.4982 5.3335 19.5552V8.88854C5.3335 7.94555 5.70811 7.04119 6.3749 6.3744C7.0417 5.70761 7.94607 5.33301 8.88906 5.33301H23.1113C24.0543 5.33301 24.9586 5.70761 25.6254 6.3744C26.2922 7.04119 26.6668 7.94555 26.6668 8.88854V19.5552C26.6668 20.4982 26.2922 21.4026 25.6254 22.0694C24.9586 22.7362 24.0543 23.1108 23.1113 23.1108H16.0002Z" stroke="white" stroke-width="1.5" stroke-linecap="round" stroke-linejoin="round"/>
<path d="M10.6665 11.333H21.3332" stroke="white" stroke-width="1.5" stroke-linecap="round" stroke-linejoin="round"/>
<path d="M10.6665 16.667H21.3332" stroke="white" stroke-width="1.5" stroke-linecap="round" stroke-linejoin="round"/>
</g>
<defs>
<clipPath id="clip0_391_14920">
<rect width="32" height="32" fill="white"/>
</clipPath>
</defs>
</svg>
