<svg width="24" height="24" viewBox="0 0 24 24" fill="none" xmlns="http://www.w3.org/2000/svg">
<path d="M12.001 15.9H3.90098C2.85098 15.9 2.00098 15.05 2.00098 14V4.9C2.00098 3.85 2.85098 3 3.90098 3H19.101C20.151 3 21.001 3.85 21.001 4.9V10" stroke="white" stroke-width="1.5" stroke-linecap="round" stroke-linejoin="round"/>
<path d="M13.1793 7.97102C14.1063 8.89802 14.1063 10.402 13.1793 11.33C12.2523 12.257 10.7482 12.257 9.82025 11.33C8.89325 10.403 8.89325 8.89902 9.82025 7.97102C10.7482 7.04302 12.2523 7.04302 13.1793 7.97102Z" stroke="white" stroke-width="1.5" stroke-linecap="round" stroke-linejoin="round"/>
<path d="M22 16.8V14M22 14C22 13.226 20.432 12.6 18.5 12.6C16.568 12.6 15.001 13.227 15 14V19.6C15.001 20.373 16.567 21 18.5 21C20.433 21 21.999 20.373 22 19.6V14Z" stroke="white" stroke-width="1.5" stroke-linecap="round" stroke-linejoin="round"/>
<path d="M15.001 14C15.001 14.773 16.568 15.4 18.501 15.4C20.434 15.4 22 14.773 22 14" stroke="white" stroke-width="1.5" stroke-linecap="round" stroke-linejoin="round"/>
<path d="M15.001 16.8C15.001 17.573 16.568 18.2001 18.501 18.2001C20.434 18.2001 22.001 17.573 22.001 16.8" stroke="white" stroke-width="1.5" stroke-linecap="round" stroke-linejoin="round"/>
<path d="M6 13H5" stroke="white" stroke-width="1.5" stroke-linecap="round" stroke-linejoin="round"/>
<path d="M18 6H17" stroke="white" stroke-width="1.5" stroke-linecap="round" stroke-linejoin="round"/>
</svg>
