<svg width="24" height="24" viewBox="0 0 24 24" fill="none" xmlns="http://www.w3.org/2000/svg">
<g clip-path="url(#clip0_392_15820)">
<path d="M10.8566 13.1444C9.68663 11.9744 8.80463 10.6644 8.21863 9.33536C8.09463 9.05436 8.16763 8.72536 8.38463 8.50836L9.20363 7.69036C9.87463 7.01936 9.87463 6.07036 9.28863 5.48436L8.11463 4.31036C7.33363 3.52936 6.06763 3.52936 5.28663 4.31036L4.63463 4.96236C3.89363 5.70336 3.58463 6.77236 3.78463 7.83236C4.27863 10.4454 5.79663 13.3064 8.24563 15.7554C10.6946 18.2044 13.5556 19.7224 16.1686 20.2164C17.2286 20.4164 18.2976 20.1074 19.0386 19.3664L19.6896 18.7154C20.4706 17.9344 20.4706 16.6684 19.6896 15.8874L18.5166 14.7144C17.9306 14.1284 16.9806 14.1284 16.3956 14.7144L15.4926 15.6184C15.2756 15.8354 14.9466 15.9084 14.6656 15.7844C13.3366 15.1974 12.0266 14.3144 10.8566 13.1444Z" stroke="#4153E4" stroke-linecap="round" stroke-linejoin="round"/>
</g>
<defs>
<clipPath id="clip0_392_15820">
<rect width="24" height="24" fill="white"/>
</clipPath>
</defs>
</svg>
