<svg width="24" height="24" viewBox="0 0 24 24" fill="none" xmlns="http://www.w3.org/2000/svg">
<g clip-path="url(#clip0_392_15810)">
<path d="M6 13.1533C4.163 13.9773 3 15.1693 3 16.5003C3 18.9853 7.029 21.0003 12 21.0003C16.971 21.0003 21 18.9853 21 16.5003C21 15.1693 19.837 13.9773 18 13.1533" stroke="#4153E4" stroke-width="1.5" stroke-linecap="round" stroke-linejoin="round"/>
<path d="M15.6521 17C14.5685 17.7051 13.2919 18.0547 12.0001 18C10.7084 18.0547 9.43181 17.7051 8.34814 17" stroke="#4153E4" stroke-width="1.5" stroke-linecap="round" stroke-linejoin="round"/>
<path d="M14.1999 3.91331C14.6358 4.34923 14.9327 4.90462 15.053 5.50926C15.1733 6.11391 15.1116 6.74064 14.8757 7.3102C14.6397 7.87977 14.2402 8.36659 13.7276 8.7091C13.215 9.0516 12.6124 9.23441 11.9959 9.23441C11.3794 9.23441 10.7768 9.0516 10.2642 8.7091C9.75159 8.36659 9.35208 7.87977 9.11616 7.3102C8.88025 6.74064 8.81853 6.11391 8.93881 5.50926C9.05909 4.90462 9.35597 4.34923 9.79191 3.91331C10.0813 3.62377 10.4249 3.39408 10.803 3.23737C11.1812 3.08066 11.5866 3 11.9959 3C12.4053 3 12.8106 3.08066 13.1888 3.23737C13.5669 3.39408 13.9105 3.62377 14.1999 3.91331Z" stroke="#4153E4" stroke-width="1.5" stroke-linecap="round" stroke-linejoin="round"/>
<path d="M12 9.23242V15.0004" stroke="#4153E4" stroke-width="1.5" stroke-linecap="round" stroke-linejoin="round"/>
</g>
<defs>
<clipPath id="clip0_392_15810">
<rect width="24" height="24" fill="white"/>
</clipPath>
</defs>
</svg>
