<svg width="24" height="24" viewBox="0 0 24 24" fill="none" xmlns="http://www.w3.org/2000/svg">
<g clip-path="url(#clip0_695_14471)">
<path d="M11.059 18.118C14.9576 18.118 18.118 14.9576 18.118 11.059C18.118 7.16042 14.9576 4 11.059 4C7.16042 4 4 7.16042 4 11.059C4 14.9576 7.16042 18.118 11.059 18.118Z" stroke="#727272" stroke-width="1.5" stroke-linecap="round" stroke-linejoin="round"/>
<path d="M8.23047 8.46747C8.6019 8.09604 9.04286 7.8014 9.52816 7.60038C10.0135 7.39936 10.5336 7.2959 11.0589 7.2959C11.5842 7.2959 12.1043 7.39936 12.5896 7.60038C13.0749 7.8014 13.5159 8.09604 13.8873 8.46747" stroke="#727272" stroke-width="1.5" stroke-linecap="round" stroke-linejoin="round"/>
<path d="M19.9998 19.9998L16.0498 16.0498" stroke="#727272" stroke-width="1.5" stroke-linecap="round" stroke-linejoin="round"/>
</g>
<defs>
<clipPath id="clip0_695_14471">
<rect width="24" height="24" fill="white"/>
</clipPath>
</defs>
</svg>
