<svg width="32" height="32" viewBox="0 0 32 32" fill="none" xmlns="http://www.w3.org/2000/svg">
<g clip-path="url(#clip0_391_14688)">
<path d="M26.6665 28H5.33317C4.98295 28.0001 4.63615 27.9312 4.31257 27.7972C3.98899 27.6632 3.69498 27.4668 3.44734 27.2192C3.1997 26.9715 3.00327 26.6775 2.8693 26.3539C2.73532 26.0304 2.66641 25.6836 2.6665 25.3333V6.66667C2.66641 6.31645 2.73532 5.96964 2.8693 5.64606C3.00327 5.32249 3.1997 5.02848 3.44734 4.78083C3.69498 4.53319 3.98899 4.33677 4.31257 4.20279C4.63615 4.06881 4.98295 3.9999 5.33317 4H26.6665C27.0167 3.9999 27.3635 4.06881 27.6871 4.20279C28.0107 4.33677 28.3047 4.53319 28.5523 4.78083C28.8 5.02848 28.9964 5.32249 29.1304 5.64606C29.2644 5.96964 29.3333 6.31645 29.3332 6.66667V25.3333C29.3333 25.6836 29.2644 26.0304 29.1304 26.3539C28.9964 26.6775 28.8 26.9715 28.5523 27.2192C28.3047 27.4668 28.0107 27.6632 27.6871 27.7972C27.3635 27.9312 27.0167 28.0001 26.6665 28Z" stroke="white" stroke-width="1.5" stroke-linecap="round" stroke-linejoin="round"/>
<path d="M2.6665 10.667H29.3332" stroke="white" stroke-width="1.5" stroke-linecap="round" stroke-linejoin="round"/>
<path d="M8 10.6667L10.6667 4" stroke="white" stroke-width="1.5" stroke-linecap="round" stroke-linejoin="round"/>
<path d="M14.6665 10.6667L17.3332 4" stroke="white" stroke-width="1.5" stroke-linecap="round" stroke-linejoin="round"/>
<path d="M21.3335 10.6667L24.0002 4" stroke="white" stroke-width="1.5" stroke-linecap="round" stroke-linejoin="round"/>
<path d="M13.4966 21.7985V16.8676C13.4966 16.7154 13.5367 16.5659 13.6128 16.4342C13.689 16.3024 13.7984 16.193 13.9303 16.117C14.0621 16.0409 14.2116 16.0009 14.3638 16.001C14.5159 16.001 14.6654 16.0412 14.7972 16.1173L19.0636 18.5828C19.1952 18.6588 19.3045 18.7682 19.3806 18.8999C19.4566 19.0316 19.4966 19.181 19.4966 19.333C19.4966 19.4851 19.4566 19.6345 19.3806 19.7662C19.3045 19.8979 19.1952 20.0073 19.0636 20.0833L14.7972 22.5488C14.6654 22.6249 14.5159 22.665 14.3638 22.6651C14.2116 22.6652 14.0621 22.6252 13.9303 22.5491C13.7984 22.4731 13.689 22.3637 13.6128 22.2319C13.5367 22.1001 13.4966 21.9507 13.4966 21.7985Z" stroke="white" stroke-width="1.5" stroke-linecap="round" stroke-linejoin="round"/>
</g>
<defs>
<clipPath id="clip0_391_14688">
<rect width="32" height="32" fill="white"/>
</clipPath>
</defs>
</svg>
